<svg width="24" height="24" viewBox="0 0 24 24" fill="none" xmlns="http://www.w3.org/2000/svg">
<path d="M5.30469 19.1876C4.46094 19.1876 3.82292 18.974 3.39062 18.5469C2.95833 18.1199 2.74219 17.487 2.74219 16.6485V12.2813C2.74219 11.9949 2.75781 11.7527 2.78906 11.5547C2.82031 11.3568 2.875 11.1797 2.95312 11.0235C3.03125 10.8672 3.13542 10.7006 3.26562 10.5235L5.83594 7.09381C6.13802 6.68756 6.41146 6.37506 6.65625 6.15631C6.90104 5.93235 7.17188 5.7761 7.46875 5.68756C7.77083 5.59902 8.15885 5.55475 8.63281 5.55475H15.3594C15.8281 5.55475 16.2135 5.59902 16.5156 5.68756C16.8177 5.7761 17.0911 5.93235 17.3359 6.15631C17.5807 6.37506 17.8542 6.68756 18.1562 7.09381L20.7266 10.5235C20.8568 10.7006 20.9583 10.8672 21.0312 11.0235C21.1094 11.1797 21.1641 11.3568 21.1953 11.5547C21.2318 11.7527 21.25 11.9949 21.25 12.2813V16.6485C21.25 17.487 21.0339 18.1199 20.6016 18.5469C20.1693 18.974 19.5286 19.1876 18.6797 19.1876H5.30469ZM11.9922 14.4063C12.388 14.4063 12.7292 14.3152 13.0156 14.1329C13.3073 13.9454 13.5312 13.7058 13.6875 13.4141C13.849 13.1172 13.9297 12.8047 13.9297 12.4766V12.4219C13.9297 12.2449 13.9818 12.086 14.0859 11.9454C14.1953 11.7995 14.362 11.7266 14.5859 11.7266H19.3047C19.4453 11.7266 19.5286 11.6797 19.5547 11.586C19.5859 11.4922 19.5703 11.3959 19.5078 11.2969L16.6562 7.46881C16.4896 7.23964 16.3021 7.07819 16.0938 6.98444C15.8854 6.88548 15.6458 6.836 15.375 6.836H8.60938C8.34896 6.836 8.11198 6.88548 7.89844 6.98444C7.6901 7.07819 7.5 7.23964 7.32812 7.46881L4.48438 11.2969C4.41146 11.3959 4.39062 11.4922 4.42188 11.586C4.45312 11.6797 4.53906 11.7266 4.67969 11.7266H9.40625C9.63021 11.7266 9.79688 11.7995 9.90625 11.9454C10.0156 12.086 10.0703 12.2449 10.0703 12.4219V12.4766C10.0703 12.8047 10.1484 13.1172 10.3047 13.4141C10.4609 13.7058 10.6823 13.9454 10.9688 14.1329C11.2604 14.3152 11.6016 14.4063 11.9922 14.4063Z" fill="#FBFF2C"/>
</svg>
