<svg width="24" height="24" viewBox="0 0 24 24" fill="none" xmlns="http://www.w3.org/2000/svg">
<path d="M14.0469 18.5234V13.4531C14.0469 13.2708 13.9922 13.125 13.8828 13.0156C13.7734 12.9062 13.6276 12.8516 13.4453 12.8516H10.5547C10.3724 12.8516 10.224 12.9062 10.1094 13.0156C10 13.125 9.94531 13.2708 9.94531 13.4531V18.5234H14.0469ZM4.99219 18.2578V12.3047L11.5234 6.82812C11.8411 6.55729 12.1615 6.55729 12.4844 6.82812L19.0156 12.3047V18.2578C19.0156 18.8203 18.849 19.2604 18.5156 19.5781C18.1823 19.8958 17.7292 20.0547 17.1562 20.0547H6.85156C6.27344 20.0547 5.81771 19.8958 5.48438 19.5781C5.15625 19.2604 4.99219 18.8203 4.99219 18.2578ZM2.46094 11.2344C2.46094 10.9948 2.5625 10.7891 2.76562 10.6172L10.9062 3.78125C11.2448 3.5 11.612 3.35938 12.0078 3.35938C12.4036 3.35938 12.7682 3.5 13.1016 3.78125L21.2344 10.6172C21.4375 10.7839 21.5391 10.9974 21.5391 11.2578C21.5391 11.4818 21.4609 11.6589 21.3047 11.7891C21.1536 11.9193 20.9661 11.9844 20.7422 11.9844C20.6224 11.9844 20.5078 11.9557 20.3984 11.8984C20.2891 11.8411 20.1875 11.776 20.0938 11.7031L12.3438 5.19531C12.2344 5.10156 12.1224 5.05469 12.0078 5.05469C11.8932 5.05469 11.7812 5.10156 11.6719 5.19531L3.91406 11.7031C3.8151 11.776 3.71094 11.8411 3.60156 11.8984C3.4974 11.9557 3.38542 11.9844 3.26562 11.9844C3.01562 11.9844 2.81771 11.9115 2.67188 11.7656C2.53125 11.6146 2.46094 11.4375 2.46094 11.2344ZM16.8281 7.44531V5.53125C16.8281 5.35938 16.8802 5.22135 16.9844 5.11719C17.0938 5.00781 17.2344 4.95312 17.4062 4.95312H18.4609C18.638 4.95312 18.7786 5.00781 18.8828 5.11719C18.987 5.22135 19.0391 5.35938 19.0391 5.53125V9.30469L16.8281 7.44531Z" fill="#FBFF2C"/>
</svg>
