<svg width="24" height="24" viewBox="0 0 24 24" fill="none" xmlns="http://www.w3.org/2000/svg">
<path d="M11.2109 19.4219C10.5703 19.4219 10.1224 19.3256 9.86719 19.1328C9.61198 18.9453 9.48438 18.6719 9.48438 18.3125C9.48438 17.8073 9.63542 17.2787 9.9375 16.7266C10.2448 16.1745 10.6849 15.6563 11.2578 15.1719C11.8359 14.6875 12.5312 14.2943 13.3438 13.9922C14.1562 13.6901 15.0677 13.5391 16.0781 13.5391C17.0938 13.5391 18.0078 13.6901 18.8203 13.9922C19.6328 14.2943 20.3255 14.6875 20.8984 15.1719C21.4766 15.6563 21.9193 16.1745 22.2266 16.7266C22.5339 17.2787 22.6875 17.8073 22.6875 18.3125C22.6875 18.6719 22.5573 18.9453 22.2969 19.1328C22.0417 19.3256 21.5938 19.4219 20.9531 19.4219H11.2109ZM16.0859 12.1485C15.513 12.1485 14.987 11.9948 14.5078 11.6875C14.0339 11.3802 13.6536 10.9662 13.3672 10.4453C13.0807 9.92451 12.9375 9.34118 12.9375 8.69534C12.9375 8.05993 13.0807 7.48701 13.3672 6.97659C13.6589 6.46097 14.0443 6.05211 14.5234 5.75003C15.0026 5.44795 15.5234 5.29691 16.0859 5.29691C16.6536 5.29691 17.1745 5.44534 17.6484 5.74222C18.1276 6.03909 18.5104 6.44534 18.7969 6.96097C19.0885 7.47138 19.2344 8.0443 19.2344 8.67972C19.2344 9.33076 19.0885 9.9193 18.7969 10.4453C18.5104 10.9662 18.1276 11.3802 17.6484 11.6875C17.1745 11.9948 16.6536 12.1485 16.0859 12.1485ZM2.75 19.4219C2.22396 19.4219 1.85156 19.3151 1.63281 19.1016C1.41406 18.8933 1.30469 18.5964 1.30469 18.211C1.30469 17.6797 1.4401 17.1407 1.71094 16.5938C1.98177 16.0417 2.36719 15.5339 2.86719 15.0703C3.3724 14.6068 3.97656 14.2318 4.67969 13.9453C5.38802 13.6589 6.17969 13.5157 7.05469 13.5157C7.76302 13.5157 8.39583 13.6094 8.95312 13.7969C9.51562 13.9792 10.013 14.2084 10.4453 14.4844C10.0026 14.8334 9.61979 15.2292 9.29688 15.6719C8.97396 16.1094 8.72396 16.5599 8.54688 17.0235C8.375 17.4818 8.28906 17.9193 8.28906 18.336C8.28906 18.7578 8.39323 19.1198 8.60156 19.4219H2.75ZM7.05469 12.3282C6.5599 12.3282 6.10417 12.1953 5.6875 11.9297C5.27083 11.6589 4.9375 11.2969 4.6875 10.8438C4.4375 10.3854 4.3125 9.87763 4.3125 9.32034C4.3125 8.76305 4.4375 8.26305 4.6875 7.82034C4.94271 7.37243 5.27865 7.01826 5.69531 6.75784C6.11198 6.49222 6.5651 6.35941 7.05469 6.35941C7.54427 6.35941 7.9974 6.48961 8.41406 6.75003C8.83594 7.00524 9.17188 7.3568 9.42188 7.80472C9.67188 8.24743 9.79688 8.74743 9.79688 9.30472C9.79688 9.87243 9.67188 10.3854 9.42188 10.8438C9.17188 11.2969 8.83854 11.6589 8.42188 11.9297C8.00521 12.1953 7.54948 12.3282 7.05469 12.3282Z" fill="#FBFF2C"/>
</svg>
