<svg width="24" height="24" viewBox="0 0 24 24" fill="none" xmlns="http://www.w3.org/2000/svg">
<path d="M8.96094 14.7188H15.0547C15.2161 14.7188 15.349 14.6667 15.4531 14.5625C15.5625 14.4531 15.6172 14.3203 15.6172 14.1641C15.6172 14.0078 15.5625 13.8776 15.4531 13.7734C15.349 13.6641 15.2161 13.6094 15.0547 13.6094H8.96094C8.79948 13.6094 8.66406 13.6641 8.55469 13.7734C8.44531 13.8776 8.39062 14.0078 8.39062 14.1641C8.39062 14.3203 8.44531 14.4531 8.55469 14.5625C8.66406 14.6667 8.79948 14.7188 8.96094 14.7188ZM8.96094 17.6484H15.0547C15.2161 17.6484 15.349 17.5964 15.4531 17.4922C15.5625 17.3828 15.6172 17.2526 15.6172 17.1016C15.6172 16.9453 15.5625 16.8151 15.4531 16.7109C15.349 16.6016 15.2161 16.5469 15.0547 16.5469H8.96094C8.79948 16.5469 8.66406 16.6016 8.55469 16.7109C8.44531 16.8151 8.39062 16.9453 8.39062 17.1016C8.39062 17.2526 8.44531 17.3828 8.55469 17.4922C8.66406 17.5964 8.79948 17.6484 8.96094 17.6484ZM7.83594 20.8203C6.9974 20.8203 6.36458 20.6042 5.9375 20.1719C5.51042 19.7396 5.29688 19.1016 5.29688 18.2578V6.46875C5.29688 5.63021 5.51042 4.99479 5.9375 4.5625C6.36458 4.125 6.9974 3.90625 7.83594 3.90625H11.3984V9.8125C11.3984 10.7812 11.8828 11.2656 12.8516 11.2656H18.6953V18.2578C18.6953 19.0964 18.4818 19.7318 18.0547 20.1641C17.6276 20.6016 16.9948 20.8203 16.1562 20.8203H7.83594ZM12.9922 10.125C12.6953 10.125 12.5469 9.97656 12.5469 9.67969V3.98438C12.724 4.00521 12.901 4.07812 13.0781 4.20312C13.2604 4.32812 13.4479 4.48958 13.6406 4.6875L17.9062 9.01562C18.1094 9.22396 18.2708 9.41667 18.3906 9.59375C18.5156 9.77083 18.5885 9.94792 18.6094 10.125H12.9922Z" fill="#FBFF2C"/>
</svg>
