<svg width="24" height="24" viewBox="0 0 24 24" fill="none" xmlns="http://www.w3.org/2000/svg">
<path d="M6.57812 20.0156C6.39583 19.8802 6.28385 19.6979 6.24219 19.4688C6.20573 19.2448 6.23958 18.9792 6.34375 18.6719L7.95312 13.8985L3.85156 10.9531C3.58594 10.7656 3.40104 10.5703 3.29688 10.3672C3.19271 10.1589 3.17708 9.94534 3.25 9.72659C3.32292 9.51304 3.46094 9.35419 3.66406 9.25002C3.86719 9.14065 4.13281 9.08856 4.46094 9.09377L9.48438 9.12502L11.0156 4.32815C11.1146 4.01565 11.2448 3.77867 11.4062 3.61721C11.5729 3.45054 11.7682 3.36721 11.9922 3.36721C12.2214 3.36721 12.4167 3.45054 12.5781 3.61721C12.7448 3.77867 12.8776 4.01565 12.9766 4.32815L14.5078 9.12502L19.5312 9.09377C19.8594 9.08856 20.125 9.14065 20.3281 9.25002C20.5312 9.35419 20.6693 9.51304 20.7422 9.72659C20.8151 9.94534 20.7995 10.1589 20.6953 10.3672C20.5911 10.5703 20.4062 10.7656 20.1406 10.9531L16.0391 13.8985L17.6484 18.6719C17.7526 18.9792 17.7839 19.2448 17.7422 19.4688C17.7057 19.6979 17.5964 19.8802 17.4141 20.0156C17.2318 20.1615 17.026 20.2136 16.7969 20.1719C16.5677 20.1302 16.3229 20.0156 16.0625 19.8281L11.9922 16.836L7.92969 19.8281C7.66927 20.0156 7.42448 20.1302 7.19531 20.1719C6.96615 20.2136 6.76042 20.1615 6.57812 20.0156Z" fill="#FBFF2C"/>
</svg>
