<svg width="24" height="24" viewBox="0 0 24 24" fill="none" xmlns="http://www.w3.org/2000/svg">
<path d="M11.9922 20.4297C10.888 20.4297 9.84896 20.2188 8.875 19.7969C7.90104 19.3803 7.04167 18.7995 6.29688 18.0547C5.55729 17.3099 4.97656 16.4506 4.55469 15.4766C4.13281 14.5026 3.92188 13.4636 3.92188 12.3594C3.92188 11.2553 4.13281 10.2162 4.55469 9.24223C4.97656 8.26827 5.55729 7.4115 6.29688 6.67192C7.04167 5.92713 7.89844 5.3438 8.86719 4.92192C9.84115 4.50005 10.8802 4.28911 11.9844 4.28911C13.0938 4.28911 14.1354 4.50005 15.1094 4.92192C16.0833 5.3438 16.9427 5.92713 17.6875 6.67192C18.4323 7.4115 19.0156 8.26827 19.4375 9.24223C19.8594 10.2162 20.0703 11.2553 20.0703 12.3594C20.0703 13.4636 19.8594 14.5026 19.4375 15.4766C19.0156 16.4506 18.4323 17.3099 17.6875 18.0547C16.9427 18.7995 16.0833 19.3803 15.1094 19.7969C14.1354 20.2188 13.0964 20.4297 11.9922 20.4297ZM11.9922 16.9219C12.0964 16.9219 12.1823 16.8881 12.25 16.8204C12.3229 16.7526 12.3594 16.6615 12.3594 16.5469V16.0079C13.0208 15.9454 13.5703 15.7344 14.0078 15.375C14.4453 15.0105 14.6641 14.5183 14.6641 13.8985C14.6641 13.3464 14.4844 12.9037 14.125 12.5704C13.7708 12.237 13.2422 12.0053 12.5391 11.875L12.3594 11.836V9.81255C12.6198 9.85942 12.8385 9.95838 13.0156 10.1094C13.1927 10.2553 13.3203 10.448 13.3984 10.6875C13.5182 10.974 13.7109 11.1172 13.9766 11.1172C14.1432 11.1172 14.276 11.0678 14.375 10.9688C14.4792 10.8698 14.5312 10.7422 14.5312 10.586C14.5312 10.5391 14.526 10.4922 14.5156 10.4454C14.5104 10.3985 14.5 10.3542 14.4844 10.3125C14.375 9.89067 14.1302 9.53911 13.75 9.25786C13.3698 8.97661 12.9062 8.80734 12.3594 8.75005V8.21098C12.3594 8.0964 12.3229 8.00525 12.25 7.93755C12.1823 7.86984 12.0964 7.83598 11.9922 7.83598C11.8828 7.83598 11.7917 7.86984 11.7188 7.93755C11.651 8.00525 11.6172 8.0964 11.6172 8.21098V8.75005C10.9818 8.81255 10.4583 9.02609 10.0469 9.39067C9.63542 9.75525 9.42969 10.224 9.42969 10.7969C9.42969 11.323 9.60417 11.7474 9.95312 12.0704C10.3021 12.3881 10.8151 12.625 11.4922 12.7813L11.6172 12.8125V14.9532C11.2891 14.9063 11.0286 14.7995 10.8359 14.6329C10.6484 14.4662 10.5208 14.2657 10.4531 14.0313C10.3958 13.8803 10.3203 13.7709 10.2266 13.7032C10.1328 13.6303 10.0156 13.5938 9.875 13.5938C9.70833 13.5938 9.57292 13.6459 9.46875 13.75C9.36979 13.849 9.32031 13.9792 9.32031 14.1407C9.32031 14.1875 9.32292 14.2344 9.32812 14.2813C9.33854 14.3282 9.35156 14.375 9.36719 14.4219C9.48177 14.8594 9.73958 15.2188 10.1406 15.5C10.5469 15.7813 11.0391 15.9454 11.6172 15.9922V16.5469C11.6172 16.6615 11.651 16.7526 11.7188 16.8204C11.7917 16.8881 11.8828 16.9219 11.9922 16.9219ZM11.6172 11.6485L11.5625 11.6329C11.2396 11.5339 11 11.4115 10.8438 11.2657C10.6927 11.1198 10.6172 10.9375 10.6172 10.7188C10.6172 10.4948 10.7057 10.2995 10.8828 10.1329C11.0651 9.96098 11.3099 9.85161 11.6172 9.80473V11.6485ZM12.3594 12.9922L12.5156 13.0313C12.8698 13.125 13.1172 13.25 13.2578 13.4063C13.4036 13.5573 13.4766 13.75 13.4766 13.9844C13.4766 14.2396 13.3828 14.4558 13.1953 14.6329C13.013 14.8047 12.7344 14.9115 12.3594 14.9532V12.9922Z" fill="#FBFF2C"/>
</svg>
